HIERARCHY
ROOT Hips
{
	OFFSET -0.001795 -0.223333 0.028219
	CHANNELS 6 Xposition Yposition Zposition Zrotation Yrotation Xrotation 
	JOINT LeftUpLeg
	{
		OFFSET 0.069520 -0.091406 -0.006815
		CHANNELS 3 Zrotation Yrotation Xrotation
		JOINT LeftLeg
		{
			OFFSET 0.034277 -0.375199 -0.004496
			CHANNELS 3 Zrotation Yrotation Xrotation
			JOINT LeftFoot
			{
				OFFSET -0.013596 -0.397961 -0.043693
				CHANNELS 3 Zrotation Yrotation Xrotation
				JOINT LeftToe
				{
					OFFSET 0.026358 -0.055791 0.119288
					CHANNELS 3 Zrotation Yrotation Xrotation
					End Site
					{
						OFFSET 0.000000 0.000000 0.000000
					}
				}
			}
		}
	}
	JOINT RightUpLeg
	{
		OFFSET -0.067670 -0.090522 -0.004320
		CHANNELS 3 Zrotation Yrotation Xrotation
		JOINT RightLeg
		{
			OFFSET -0.038290 -0.382569 -0.008850
			CHANNELS 3 Zrotation Yrotation Xrotation
			JOINT RightFoot
			{
				OFFSET 0.015774 -0.398415 -0.042312
				CHANNELS 3 Zrotation Yrotation Xrotation
				JOINT RightToe
				{
					OFFSET -0.025372 -0.048144 0.123348
					CHANNELS 3 Zrotation Yrotation Xrotation
					End Site
					{
						OFFSET 0.000000 0.000000 0.000000
					}
				}
			}
		}
	}
	JOINT Spine
	{
		OFFSET -0.002533 0.108963 -0.026696
		CHANNELS 3 Zrotation Yrotation Xrotation
		JOINT Spine1
		{
			OFFSET 0.005487 0.135180 0.001092
			CHANNELS 3 Zrotation Yrotation Xrotation
			JOINT Spine2
			{
				OFFSET 0.001457 0.052922 0.025425
				CHANNELS 3 Zrotation Yrotation Xrotation
				JOINT Neck
				{
					OFFSET -0.002778 0.213870 -0.042857
					CHANNELS 3 Zrotation Yrotation Xrotation
					JOINT Head
					{
						OFFSET 0.005152 0.064970 0.051349
						CHANNELS 3 Zrotation Yrotation Xrotation
						End Site
						{
							OFFSET 0.000000 0.000000 0.000000
						}
					}
				}
				JOINT LeftShoulder
				{
					OFFSET 0.078845 0.121749 -0.034090
					CHANNELS 3 Zrotation Yrotation Xrotation
					JOINT LeftArm
					{
						OFFSET 0.090977 0.030469 -0.008868
						CHANNELS 3 Zrotation Yrotation Xrotation
						JOINT LeftForeArm
						{
							OFFSET 0.259612 -0.012772 -0.027456
							CHANNELS 3 Zrotation Yrotation Xrotation
							JOINT LeftHand
							{
								OFFSET 0.249234 0.008986 -0.001171
								CHANNELS 3 Zrotation Yrotation Xrotation
								End Site
								{
									OFFSET 0.000000 0.000000 0.000000
								}
							}
						}
					}
				}
				JOINT RightShoulder
				{
					OFFSET -0.081759 0.118833 -0.038615
					CHANNELS 3 Zrotation Yrotation Xrotation
					JOINT RightArm
					{
						OFFSET -0.096012 0.032551 -0.009143
						CHANNELS 3 Zrotation Yrotation Xrotation
						JOINT RightForeArm
						{
							OFFSET -0.253742 -0.013329 -0.021401
							CHANNELS 3 Zrotation Yrotation Xrotation
							JOINT RightHand
							{
								OFFSET -0.255298 0.007772 -0.005559
								CHANNELS 3 Zrotation Yrotation Xrotation
								End Site
								{
									OFFSET 0.000000 0.000000 0.000000
								}
							}
						}
					}
				}
			}
		}
	}
}
MOTION
Frames: 13
Frame Time: 0.050000
0.040184 0.911024 0.474545 1.274761 -10.932539 9.787058 8.076934 -0.110430 -21.107873 -8.843801 1.797181 9.457015 7.595089 15.833591 6.185698 0.000000 0.000000 0.000000 -13.677131 1.028722 -23.555643 9.279074 -1.029723 12.375002 -6.251671 -17.409244 8.701144 0.000000 0.000000 0.000000 5.613564 -2.054074 31.865916 -4.962627 1.593348 -23.865638 -6.817381 6.866143 24.339570 18.138330 -3.567331 -45.702711 0.000000 0.000000 0.000000 -11.541666 -30.350902 13.462910 -48.161232 -40.041897 9.137778 41.902593 -60.600590 -20.870074 0.000000 0.000000 0.000000 20.662789 15.538038 8.047742 66.786848 49.012531 22.519212 -30.449914 59.131969 -12.119290 0.000000 0.000000 0.000000 
0.039775 0.911230 0.473894 1.175875 -11.199428 9.937051 8.062826 -0.096232 -21.221892 -8.562679 1.739594 9.425732 7.717464 16.035822 6.327959 0.000000 0.000000 0.000000 -13.516962 1.076107 -23.743696 9.226272 -1.006515 12.256302 -6.135735 -17.229759 8.778832 0.000000 0.000000 0.000000 5.552405 -2.008837 31.792398 -4.750604 1.539080 -23.716784 -6.877040 6.847921 24.239569 18.004964 -3.548005 -45.600722 0.000000 0.000000 0.000000 -10.845136 -30.325208 13.308898 -48.435176 -39.996025 9.219954 41.372015 -61.053314 -20.706265 0.000000 0.000000 0.000000 20.977198 15.479783 8.006427 67.193821 48.212919 22.129342 -30.091513 60.940848 -12.375369 0.000000 0.000000 0.000000 
0.039349 0.911066 0.473421 1.197837 -11.472626 9.951563 8.027217 -0.081828 -21.448600 -8.468015 1.756636 9.826819 7.842622 16.242533 6.387639 0.000000 0.000000 0.000000 -13.509924 1.102532 -23.939552 9.228833 -0.998409 12.399740 -6.043020 -17.065254 8.692981 0.000000 0.000000 0.000000 5.521299 -1.972121 31.838438 -4.795826 1.545690 -23.775797 -6.794461 6.744672 24.345709 17.733785 -3.457137 -45.707628 0.000000 0.000000 0.000000 -10.409281 -30.418046 13.287672 -48.308520 -40.079994 9.237447 40.341976 -61.332482 -20.154226 0.000000 0.000000 0.000000 21.396169 15.230479 7.832322 67.320109 47.330216 21.506985 -29.085576 62.890891 -12.293105 0.000000 0.000000 0.000000 
0.038791 0.911198 0.473242 1.171941 -11.729049 9.963512 8.082487 -0.052091 -21.532300 -8.441330 1.776207 10.029892 7.949299 16.414064 6.521133 0.000000 0.000000 0.000000 -13.390033 1.140089 -24.070240 9.138230 -0.972704 12.497736 -5.937902 -16.884639 8.666221 0.000000 0.000000 0.000000 5.374584 -1.898518 31.827310 -4.530214 1.478871 -23.611069 -6.813672 6.642298 24.196772 17.443811 -3.398946 -45.554826 0.000000 0.000000 0.000000 -10.006458 -30.420776 13.227566 -48.128585 -40.018494 9.189418 39.396470 -61.575722 -19.650784 0.000000 0.000000 0.000000 21.804574 15.368485 7.882301 67.258902 46.406532 20.806486 -28.644336 64.510424 -12.475014 0.000000 0.000000 0.000000 
0.038011 0.910999 0.473380 1.120095 -11.937867 10.040183 8.123884 -0.030276 -21.611038 -8.324965 1.765119 10.148451 8.051060 16.584880 6.506775 0.000000 0.000000 0.000000 -13.232219 1.177489 -24.111514 9.042806 -0.945257 12.389935 -5.871633 -16.748526 8.504014 0.000000 0.000000 0.000000 5.317402 -1.858956 31.731480 -4.417197 1.448645 -23.496713 -6.757600 6.478866 24.104881 17.314613 -3.424997 -45.296779 0.000000 0.000000 0.000000 -9.791377 -30.364967 13.199631 -47.830993 -39.905003 9.079300 38.591166 -61.980828 -19.275751 0.000000 0.000000 0.000000 22.036279 15.259709 7.752437 67.471033 45.144964 19.988234 -26.985528 66.336229 -11.917235 0.000000 0.000000 0.000000 
0.037116 0.911139 0.473746 1.129278 -12.051050 9.974801 8.095728 -0.033699 -21.449627 -8.203190 1.736279 10.091802 8.093418 16.653862 6.558506 0.000000 0.000000 0.000000 -13.127179 1.190541 -23.932006 8.955385 -0.922740 12.217433 -5.821482 -16.633536 8.388367 0.000000 0.000000 0.000000 5.214186 -1.816105 31.887886 -4.304968 1.421012 -23.522478 -6.725673 6.281707 23.981862 17.344432 -3.430722 -45.377144 0.000000 0.000000 0.000000 -9.682047 -30.246351 13.158305 -47.468246 -39.696739 8.904059 37.968521 -62.326759 -18.997127 0.000000 0.000000 0.000000 22.594860 15.111645 7.639323 67.115611 44.164919 19.128735 -25.058478 67.657216 -11.026933 0.000000 0.000000 0.000000 
0.036361 0.911267 0.474018 1.049202 -12.121800 10.007676 8.196347 -0.017181 -21.227359 -8.157847 1.703369 9.747155 8.121019 16.700346 6.588815 0.000000 0.000000 0.000000 -12.969727 1.210617 -23.812905 8.916753 -0.909779 11.990099 -5.785999 -16.559712 8.344170 0.000000 0.000000 0.000000 5.097970 -1.774005 31.891745 -4.216004 1.398590 -23.498038 -6.583274 6.198530 23.938090 17.336832 -3.417118 -45.463027 0.000000 0.000000 0.000000 -9.625541 -29.969633 13.042884 -47.289083 -39.436150 8.739369 37.961701 -63.084947 -19.249094 0.000000 0.000000 0.000000 22.863175 14.956063 7.531645 66.906946 43.286353 18.418723 -23.317027 69.141966 -10.195154 0.000000 0.000000 0.000000 
0.035889 0.911566 0.473954 1.041414 -12.258329 10.015568 8.143202 -0.024261 -21.095821 -7.997698 1.656667 9.551886 8.174779 16.784595 6.717143 0.000000 0.000000 0.000000 -12.839724 1.229183 -23.631601 8.762630 -0.873347 11.609093 -5.707719 -16.413821 8.338818 0.000000 0.000000 0.000000 5.022077 -1.735173 31.852824 -4.242652 1.403358 -23.382991 -6.473553 6.228687 23.859259 17.168357 -3.324737 -45.588506 0.000000 0.000000 0.000000 -9.586701 -29.836032 12.981125 -47.265241 -39.130432 8.601588 38.526347 -63.652464 -19.812295 0.000000 0.000000 0.000000 22.905498 14.868395 7.467945 66.389382 42.725161 17.817104 -22.345803 70.292071 -9.779408 0.000000 0.000000 0.000000 
0.035661 0.911821 0.473594 1.047430 -12.254952 10.071791 8.110939 -0.033697 -21.034349 -7.917810 1.619655 9.292504 8.167615 16.767023 6.842355 0.000000 0.000000 0.000000 -12.863934 1.227850 -23.632208 8.819035 -0.880902 11.454483 -5.697876 -16.415120 8.442614 0.000000 0.000000 0.000000 5.042910 -1.743250 31.834469 -4.312636 1.419401 -23.318428 -6.444452 6.182130 23.827381 16.973025 -3.223882 -45.741315 0.000000 0.000000 0.000000 -9.617106 -29.516863 12.854040 -47.243906 -38.927338 8.501620 39.601337 -64.172248 -20.682070 0.000000 0.000000 0.000000 22.814548 14.903307 7.466819 65.917942 42.719273 17.620280 -21.825495 70.641120 -9.513033 0.000000 0.000000 0.000000 
0.035554 0.912015 0.473082 1.084979 -12.203161 9.933078 8.101905 -0.043082 -20.853892 -7.953413 1.615967 9.150437 8.127311 16.695164 6.917505 0.000000 0.000000 0.000000 -12.794354 1.220604 -23.422193 8.667846 -0.856423 11.312571 -5.693823 -16.396262 8.444881 0.000000 0.000000 0.000000 5.107293 -1.768873 31.951748 -4.439711 1.451009 -23.328561 -6.318280 6.322544 23.855181 16.922126 -3.161914 -45.897150 0.000000 0.000000 0.000000 -9.681544 -29.532556 12.841628 -47.197288 -38.844155 8.434941 41.072539 -64.499872 -21.809096 0.000000 0.000000 0.000000 22.500556 14.848969 7.461832 65.107863 42.934789 17.431567 -21.782899 70.826049 -9.505521 0.000000 0.000000 0.000000 
0.035471 0.912109 0.472643 1.114045 -12.154645 9.763943 8.056410 -0.059985 -20.576130 -7.918986 1.590713 8.912034 8.093566 16.638957 6.932697 0.000000 0.000000 0.000000 -12.791513 1.210652 -23.357369 8.650124 -0.857400 11.488448 -5.702062 -16.404896 8.450937 0.000000 0.000000 0.000000 5.218086 -1.808652 32.122609 -4.541142 1.476910 -23.175939 -6.314708 6.332303 23.790046 16.662033 -3.023824 -46.096688 0.000000 0.000000 0.000000 -9.721574 -29.264170 12.712574 -47.341536 -38.918715 8.504148 41.937868 -64.776446 -22.499298 0.000000 0.000000 0.000000 21.923313 15.089662 7.559916 64.527181 43.615973 17.667122 -22.461865 70.287292 -9.925959 0.000000 0.000000 0.000000 
0.035317 0.911863 0.472307 1.191986 -12.066889 9.608602 7.961900 -0.086379 -20.365086 -7.882053 1.568631 8.747982 8.053206 16.577801 6.843449 0.000000 0.000000 0.000000 -12.846281 1.194573 -23.379330 8.642364 -0.863377 11.808681 -5.754471 -16.476148 8.342181 0.000000 0.000000 0.000000 5.359873 -1.861868 32.219208 -4.725183 1.523244 -23.178310 -6.277331 6.439121 23.852479 16.571523 -2.997891 -46.040893 0.000000 0.000000 0.000000 -9.794527 -29.252121 12.691754 -47.215731 -38.973072 8.472433 42.086076 -65.152853 -22.793759 0.000000 0.000000 0.000000 21.589259 15.183884 7.630844 63.796060 44.013117 17.624200 -22.776095 69.968029 -10.079455 0.000000 0.000000 0.000000 
0.035133 0.911576 0.472005 1.274296 -11.838920 9.398101 7.930599 -0.106515 -20.160195 -7.963746 1.574122 8.661286 7.945457 16.404134 6.717698 0.000000 0.000000 0.000000 -13.004449 1.155893 -23.411440 8.817562 -0.908539 12.306088 -5.869204 -16.662689 8.269107 0.000000 0.000000 0.000000 5.473297 -1.917674 32.220756 -4.809908 1.548364 -23.110083 -6.299578 6.536012 23.879866 16.526307 -2.994929 -45.932000 0.000000 0.000000 0.000000 -9.666637 -29.452387 12.703687 -46.881454 -39.292869 8.509249 41.750007 -65.042238 -22.595813 0.000000 0.000000 0.000000 21.139112 15.310109 7.720464 63.174865 44.724246 17.841967 -23.652667 69.204969 -10.522589 0.000000 0.000000 0.000000 
